<svg
   version="1.1"
   width="3316.2095"
   height="3309.3599"
   viewBox="0 0 3316.2095 3309.3599"
   xmlns="http://www.w3.org/2000/svg"
   xmlns:svg="http://www.w3.org/2000/svg">
  <defs
     id="defs1" />
  <g
     id="g1"
     transform="translate(-341.87354,-345.3201)">
    <g
       id="group-R5">
      <path
         id="gas-burn"
         d="m 14676.9,17450.1 c 115.8,-781.2 360.9,-1543.5 758.1,-2263.5 373.5,729.6 629.1,1519.5 754.2,2329.8 -468.3,139.5 -977.1,138.3 -1512.3,-66.3"
         style="fill:#ff9d00;fill-opacity:1;fill-rule:nonzero;stroke:none"
         transform="matrix(0.13333333,0,0,-0.13333333,0,4000)" />
      <path
         id="wings"
         d="m 18605.1,20347.8 c -351.9,310.5 -771.3,546.3 -1223.1,672.9 l -755.7,-2148.3 c 82.2,-33.6 163.8,-70.2 243.6,-108.6 509.7,-245.4 882,-702.6 1023.6,-1250.1 131.7,-510 214.5,-1021.8 264.6,-1536.6 480.3,803.7 826.5,1661.1 1030.8,2545.8 154.5,668.1 -69.6,1371.6 -583.8,1824.9 z m -4776.9,-206.1 -309.3,879.3 c -451.8,-126.6 -871.5,-362.4 -1223.1,-672.9 -514.2,-453.6 -738.3,-1156.8 -583.8,-1824.6 204.6,-884.7 550.5,-1742.1 1030.8,-2545.8 3.3,35.7 7.2,71.4 10.8,107.1 51,478.8 131.4,954.6 253.8,1429.5 141.6,547.5 513.9,1004.7 1023.3,1250.1 80.1,38.4 161.4,75 243.6,108.6 l -446.1,1268.7"
         style="fill:#f73c5c;fill-opacity:1;fill-rule:nonzero;stroke:none"
         transform="matrix(0.13333333,0,0,-0.13333333,0,4000)" />
      <path
         id="wings-shadow"
         d="m 14274.6,18872.7 c -82.2,-33.6 -163.8,-70.2 -243.6,-108.6 -509.7,-245.4 -882,-702.6 -1023.3,-1250.1 -122.4,-474.6 -202.8,-950.7 -253.8,-1429.5 -115.8,404.4 -192.9,817.8 -223.5,1236.3 -37.8,521.4 -0.6,1054.8 177.3,1546.2 178.2,491.4 506.4,938.7 959.1,1199.4 55.5,32.1 109.5,56.7 161.7,75.3 z m 2351.7,0 c 82.2,-33.6 163.8,-70.2 243.6,-108.6 509.7,-245.4 882,-702.6 1023.3,-1250.1 122.4,-474.6 202.8,-950.7 253.8,-1429.5 115.8,404.4 192.9,817.8 223.5,1236.3 37.8,521.4 0.6,1054.8 -177.3,1546.2 -178.2,491.4 -506.4,938.7 -959.1,1199.4 -55.5,32.1 -109.5,56.7 -161.7,75.3 l -446.1,-1269"
         style="fill:#2a8bea;fill-opacity:1;fill-rule:nonzero;stroke:none"
         transform="matrix(0.13333333,0,0,-0.13333333,0,4000)" />
      <path
         id="rocket-body-blast"
         d="m 17696.1,22340.4 c 0,-1689 -490.5,-3113.1 -981.6,-4038.9 -152.7,-288.3 -305.4,-528 -443.7,-712.5 h -1644.3 c -170.1,170.1 -342.3,411.9 -505.5,712.5 -501.3,922.8 -915.9,2397 -915.9,4038.9 0,1484.4 372.6,2809.8 859.8,3732.9 432,818.4 953.7,1320 1385.7,1336.8 363.6,0 888.6,-512.1 1339.5,-1349.4 498,-925.8 906,-2250 906,-3720.3 z M 27002.7,4923.9 c -15.3,19.2 -30.9,38.1 -47.1,56.4 -525,609.6 -1379.1,888.6 -2182.8,816.3 -599.1,-54 -1306.8,-249.3 -1726.8,182.1 -315.6,324.3 -283.2,837.9 -275.4,1290.6 7.8,453 -90.6,996 -508.2,1170.3 -676.5,282 -1385.4,-696.9 -2076.9,-453.3 -170.4,60 -320.7,192.6 -501.9,193.2 -336.9,0.9 -522.9,-439.2 -854.7,-499.8 -364.2,-66.3 -620.4,339.3 -765.3,680.1 -1131.3,2663.1 -2193.6,5610.9 -1875,8486.7 -177,-665.4 -512.1,-1519.5 -630,-1705.5 -99.6,-157.2 -213,-93.9 -271.2,-38.1 -58.2,56.1 -86.4,135.9 -111.9,212.4 -159,474.3 -299.1,954.6 -420.6,1440.3 286.5,-2013.6 -100.8,-4131.6 -1062,-5949 -398.4,-753.6 -895.5,-1455.9 -1484.4,-2077.5 -696.6,682.2 -1537.5,1231.8 -2472.6,1507.5 -641.7,189.6 -1329.3,244.5 -1988.1,138 -301.2,-48.3 -596.1,-130.8 -877.8,-249 C 5971.2,9747.9 5222.4,8986.2 4980.9,8103.6 3933.6,7725 3081.3,6843.6 2737.8,5784.6 2394.3,4725 2567.4,3511.2 3192.6,2590.2 c 0,0 24032.1,0 23898.9,22.5 509.1,657.9 431.1,1662.6 -88.8,2311.2"
         style="fill:#e3e9e9;fill-opacity:1;fill-rule:nonzero;stroke:none"
         transform="matrix(0.13333333,0,0,-0.13333333,0,4000)" />
      <path
         id="black"
         d="m 16323.9,17661.6 121.5,-308.7 h -1989.9 l 115.8,293.7 c -152.1,165.6 -304.8,386.7 -450.6,654.6 h 2593.8 c -133.5,-251.4 -267,-466.2 -390.6,-639.6 z m 521.7,5820.3 c 0,787.5 -640.5,1428 -1428,1428 -787.2,0 -1428,-640.5 -1428,-1428 0,-787.2 640.5,-1428 1428,-1428 787.2,0 1428,640.5 1428,1428"
         style="fill:#2a2a2a;fill-opacity:1;fill-rule:nonzero;stroke:none"
         transform="matrix(0.13333333,0,0,-0.13333333,0,4000)" />
      <path
         id="lens"
         d="m 15417.6,24690.6 c 667.1,0 1208.7,-541.6 1208.7,-1208.7 0,-667.1 -541.6,-1208.7 -1208.7,-1208.7 -667.1,0 -1208.7,541.6 -1208.7,1208.7 0,667.1 541.6,1208.7 1208.7,1208.7"
         style="fill:#4ac8ed;fill-opacity:1;fill-rule:evenodd;stroke:none"
         transform="matrix(0.13333333,0,0,-0.13333333,0,4000)" />
      <path
         id="top"
         d="m 15297.3,18499.2 c 0,1418.7 68.7,2568.9 153,2568.9 84.3,0 153,-1150.2 153,-2568.9 0,-1418.7 -68.4,-2568.9 -153,-2568.9 -84.6,0 -153,1150.2 -153,2568.9 z m 153,8910.9 c -432,-16.8 -953.7,-518.4 -1385.7,-1336.8 401.7,-112.5 877.2,-177.6 1385.7,-177.6 489.6,0 947.7,60.3 1339.5,165 -450.6,837.3 -975.6,1349.4 -1339.5,1349.4"
         style="fill:#f73c5c;fill-opacity:1;fill-rule:nonzero;stroke:none"
         transform="matrix(0.13333333,0,0,-0.13333333,0,4000)" />
      <path
         id="blast2"
         d="m 27092.1,2612.4 c 132.9,-22.5 -23898.9,-22.5 -23898.9,-22.5 -625.5,921 -798.6,2135.1 -454.8,3194.4 343.5,1059.3 1196.1,1940.4 2243.1,2319 241.5,882.6 990,1644.3 1889.1,2022 281.7,118.5 576.6,200.7 877.8,249 -522.9,-292.2 -966.9,-727.2 -1252.8,-1254 C 5984.7,8178.9 5995.5,6974.7 6522.9,6042.6 6078,6347.1 5401.2,5961 5304.6,5430.3 5208,4899.6 5559,4367.4 6020.1,4086.9 c 461.1,-280.5 1012.2,-362.1 1547.1,-431.1 1612.2,-208.2 3334.5,-339 4783.8,396.6 1296.6,657.6 2190,1938 2686.5,3304.8 496.5,1366.8 641.7,2831.7 783.3,4278.9 118.5,-1463.4 240,-2942.7 699.3,-4337.1 459.3,-1394.4 1296.9,-2716.8 2556.6,-3470.7 1344,-804.6 2993.1,-877.5 4558.5,-825.9 829.5,27.6 1698.3,96 2399.7,539.4 496.2,312.9 870.3,872.7 921,1438.5 15.9,-18.3 31.5,-37.5 47.1,-56.4 519.6,-648.6 597.6,-1653.3 89.1,-2311.5 z M 13693.5,10806.6 C 13295.1,10053 12798,9350.7 12209.1,8729.1 c 199.8,-732.6 52.8,-1443.3 -261.9,-2133.9 -314.7,-690.9 -783.6,-1298.4 -1248,-1899 1041.6,875.1 2011.8,1881.6 2584.8,3115.5 430.5,927.6 609.9,2003.4 409.5,2994.9"
         style="fill:#c1d2d2;fill-opacity:1;fill-rule:nonzero;stroke:none"
         transform="matrix(0.13333333,0,0,-0.13333333,0,4000)" />
      <path
         id="lens-flare"
         d="m 15161.1,24564.3 c -92.7,-27 -174,-80.1 -255.9,-129.6 -169.5,-101.4 -317.1,-239.1 -422.4,-406.8 -123,-206.4 -161.4,-462 -127.5,-698.1 4.2,-24.3 8.1,-49.2 17.4,-72.3 -0.3,0.6 -0.6,0.9 -0.3,-0.3 0.3,-1.2 1.2,-2.1 1.5,-3.3 0.3,-0.9 0.6,-2.1 1.2,-3 -0.6,1.5 -0.6,1.8 -1.2,3 6,-15.6 24,-25.2 40.2,-20.4 12.3,3.3 21,13.8 23.7,25.8 0,0 0,0 0,0.3 0.3,1.8 0.6,3.9 0.6,5.7 0,1.5 0.3,2.4 0.6,4.5 -0.3,23.4 -1.5,17.4 -3.6,45 -3.6,46.5 -2.1,93.3 -1.5,140.1 4.8,438.3 273.6,748.2 660,971.1 50.4,31.5 53.1,23.4 110.1,51.9 43.2,29.4 7.2,102.3 -42.9,86.4"
         style="fill:#e3e9e9;fill-opacity:1;fill-rule:nonzero;stroke:none"
         transform="matrix(0.13333333,0,0,-0.13333333,0,4000)" />
    </g>
  </g>
</svg>
