<?xml version="1.0" standalone="no"?>
<!DOCTYPE svg PUBLIC "-//W3C//DTD SVG 20010904//EN"
 "http://www.w3.org/TR/2001/REC-SVG-20010904/DTD/svg10.dtd">
<svg version="1.0" xmlns="http://www.w3.org/2000/svg"
 width="490.000000pt" height="490.000000pt" viewBox="0 0 490.000000 490.000000"
 preserveAspectRatio="xMidYMid meet">
<metadata>
Created by potrace 1.14, written by Peter Selinger 2001-2017
</metadata>
<g transform="translate(0.000000,490.000000) scale(0.100000,-0.100000)"
fill="#000000" stroke="none">
<path d="M2259 3880 c-243 -34 -481 -133 -682 -282 -85 -64 -1234 -1199 -1374
-1357 -86 -98 -135 -181 -171 -289 -23 -67 -26 -94 -26 -212 0 -151 11 -201
73 -330 28 -60 56 -96 136 -176 84 -85 114 -107 185 -142 111 -54 191 -72 321
-72 132 0 230 24 343 82 69 37 102 64 221 185 l140 142 70 -61 c145 -126 344
-239 510 -291 168 -52 237 -62 450 -62 182 0 210 2 311 27 203 48 380 130 556
258 64 46 526 502 1119 1105 365 370 378 388 431 555 19 63 23 95 22 205 0
111 -4 141 -26 207 -40 121 -92 204 -187 299 -69 69 -103 94 -171 128 -220
107 -441 109 -654 5 -84 -41 -173 -113 -305 -247 l-84 -86 -64 59 c-169 155
-434 287 -676 336 -88 18 -378 26 -468 14z"/>
</g>
</svg>
